<?xml version="1.0" standalone="no"?>
<!DOCTYPE svg PUBLIC "-//W3C//DTD SVG 20010904//EN"
 "http://www.w3.org/TR/2001/REC-SVG-20010904/DTD/svg10.dtd">
<svg version="1.0" xmlns="http://www.w3.org/2000/svg"
 width="1024.000000pt" height="576.000000pt" viewBox="0 0 1024.000000 576.000000"
 preserveAspectRatio="xMidYMid meet">

<g transform="translate(0.000000,576.000000) scale(0.100000,-0.100000)"
fill="#000000" stroke="none">
<path d="M8504 4829 c-99 -13 -202 -61 -353 -164 -121 -85 -161 -139 -196
-270 -16 -60 -21 -66 -39 -60 -98 31 -127 36 -196 32 -122 -8 -218 -57 -290
-148 -22 -28 -46 -73 -55 -102 -21 -71 -29 -198 -17 -287 9 -73 9 -76 -20
-127 l-29 -53 -37 25 c-21 14 -70 33 -110 43 -72 17 -73 18 -96 68 -29 63 -77
118 -130 149 -102 60 -194 71 -306 36 -35 -11 -65 -19 -65 -18 -57 103 -95
140 -190 183 -68 32 -151 40 -228 24 -76 -15 -202 -79 -261 -132 -46 -40 -49
-41 -80 -29 -85 35 -123 42 -181 36 -126 -12 -218 -60 -276 -140 -36 -51 -33
-49 -60 -34 -37 20 -151 12 -210 -14 -99 -44 -178 -155 -199 -280 -11 -62 -15
-69 -60 -103 -58 -44 -89 -97 -97 -164 -5 -42 -9 -50 -22 -44 -47 19 -84 25
-165 25 -79 1 -95 -2 -150 -29 -33 -17 -74 -33 -90 -37 -79 -17 -179 -107
-222 -198 -17 -37 -24 -70 -24 -113 0 -48 -6 -72 -25 -105 -18 -32 -25 -59
-25 -98 0 -42 -5 -59 -25 -83 -32 -38 -48 -101 -42 -164 6 -61 25 -101 74
-154 l35 -40 -21 -52 c-11 -29 -24 -66 -29 -82 -4 -17 -13 -31 -20 -34 -15 -5
-155 134 -175 174 -9 18 -30 43 -47 57 l-31 26 21 68 c63 211 65 353 6 402 -9
8 -16 26 -16 41 0 15 -16 71 -35 124 -53 146 -46 223 29 334 16 23 32 42 36
42 4 0 34 -12 65 -26 76 -35 214 -44 297 -20 141 41 269 200 274 341 1 41 9
72 23 95 30 50 29 135 -4 200 -14 27 -25 58 -25 69 0 11 -18 41 -40 66 -29 34
-40 55 -40 79 0 40 -52 121 -90 141 -16 8 -39 34 -52 57 -13 24 -37 52 -54 63
-17 11 -41 37 -53 57 -25 44 -90 91 -146 107 -48 13 -155 14 -210 1 -38 -9
-41 -7 -68 26 -54 65 -147 96 -226 74 -39 -10 -47 -9 -70 7 -59 44 -125 53
-205 29 -43 -13 -51 -13 -89 5 -84 37 -226 16 -287 -44 -17 -16 -50 -42 -74
-57 -46 -29 -89 -80 -101 -117 -5 -18 -14 -23 -38 -23 -38 0 -113 -33 -145
-63 -13 -12 -32 -38 -42 -57 -10 -19 -36 -52 -59 -73 -22 -21 -48 -52 -57 -69
-23 -44 -30 -148 -14 -212 11 -48 11 -59 -6 -102 -42 -110 -12 -228 81 -319
28 -27 62 -69 75 -93 29 -51 94 -97 169 -118 70 -21 192 -11 286 21 78 28 81
27 127 -44 22 -36 28 -57 28 -100 0 -92 -64 -208 -140 -256 -30 -19 -44 -39
-68 -97 -17 -40 -34 -85 -37 -100 -10 -39 -25 -25 -25 23 0 107 -50 189 -114
189 -33 0 -36 2 -36 30 0 66 -39 120 -87 120 -11 0 -25 16 -37 41 -21 46 -67
79 -111 79 -22 0 -42 -13 -81 -51 l-52 -51 -57 75 c-71 95 -157 167 -260 217
-80 39 -195 70 -261 70 -19 0 -34 4 -34 8 0 24 44 170 65 219 35 77 122 205
194 282 55 60 60 63 76 48 19 -20 63 -22 85 -4 35 28 44 51 47 115 2 65 2 65
-42 110 -44 44 -45 44 -97 37 -61 -8 -71 -15 -88 -56 -10 -24 -10 -39 -1 -70
12 -40 11 -41 -26 -82 -21 -23 -60 -70 -87 -105 -27 -34 -51 -60 -54 -57 -4 4
7 40 40 128 7 19 17 27 35 27 28 0 73 44 73 72 0 42 -28 75 -79 92 -90 29
-126 15 -138 -57 -4 -29 -1 -40 20 -61 l25 -25 -33 -88 c-28 -75 -47 -144 -94
-347 -6 -24 -14 -2 -44 120 -20 82 -41 171 -46 197 -8 47 -8 49 18 60 41 17
61 38 61 64 0 37 -17 61 -49 68 -27 6 -28 8 -21 41 12 52 -6 93 -46 110 -48
20 -78 17 -111 -10 -15 -13 -37 -25 -47 -27 -31 -6 -59 -63 -52 -104 10 -50
46 -88 84 -88 30 0 32 -3 42 -56 6 -31 20 -94 31 -141 11 -47 22 -94 25 -105
3 -11 -4 -4 -15 16 -11 20 -62 79 -112 130 -79 81 -93 99 -95 130 -5 82 -71
121 -137 80 -49 -30 -107 -108 -107 -143 0 -33 25 -87 49 -105 26 -20 84 -16
109 8 29 26 45 20 107 -39 70 -66 103 -107 153 -183 40 -63 101 -191 102 -215
0 -6 -19 -16 -42 -23 -235 -69 -425 -268 -486 -510 l-19 -73 -21 36 c-28 47
-72 58 -135 31 -15 -6 -16 -4 -7 19 8 23 6 31 -15 52 -19 19 -34 24 -73 24
-62 0 -85 -22 -86 -83 -1 -39 1 -43 32 -52 l32 -9 0 -146 c-1 -154 -3 -157
-40 -48 -19 56 -21 74 -12 108 8 33 7 43 -5 55 -17 17 -39 19 -48 5 -3 -5 -11
-10 -18 -10 -8 0 -8 3 1 12 16 16 15 60 -1 82 -15 21 -39 23 -93 7 -32 -9 -45
-18 -55 -44 -7 -17 -22 -39 -33 -48 -19 -16 -19 -18 -3 -43 17 -26 17 -26 -10
-26 -50 -1 -83 -45 -83 -109 0 -40 21 -54 68 -46 l38 6 69 -98 c38 -54 92
-121 120 -149 l50 -51 -6 -89 c-4 -49 -8 -245 -8 -435 -1 -464 11 -533 119
-679 54 -73 112 -124 168 -146 20 -9 62 -35 92 -58 73 -57 122 -73 155 -52 54
36 94 168 102 341 9 212 -41 367 -159 489 -32 33 -56 61 -55 63 2 1 45 -8 96
-21 l92 -23 100 -198 c171 -339 289 -525 419 -657 67 -70 80 -78 113 -78 49 0
98 44 159 146 58 96 150 308 204 467 21 64 42 117 45 117 4 0 10 -26 13 -57
17 -137 77 -348 129 -446 33 -63 102 -133 141 -143 34 -8 72 2 96 26 22 22 40
26 40 10 0 -19 64 -50 102 -50 162 0 400 210 615 542 l47 73 12 -95 c24 -184
78 -300 198 -427 83 -89 185 -157 291 -197 77 -29 87 -30 235 -30 145 0 160 2
230 28 41 16 91 37 110 47 60 30 178 131 221 189 57 74 117 205 136 293 36
172 -11 373 -121 512 -116 148 -279 225 -473 225 l-83 0 0 28 c0 34 18 100 29
107 5 2 28 -15 53 -39 31 -32 55 -46 83 -51 22 -4 68 -21 103 -37 76 -36 127
-44 178 -28 38 13 38 13 74 -27 55 -62 122 -192 209 -404 255 -623 263 -639
335 -676 71 -37 250 -11 362 52 58 34 121 106 130 149 11 61 -2 92 -99 229
-247 351 -402 616 -448 766 l-22 74 35 32 c19 18 47 47 62 65 26 31 28 32 71
21 24 -6 60 -11 80 -11 21 0 34 -4 30 -10 -13 -21 -6 -326 10 -406 54 -281
220 -550 460 -743 94 -76 176 -122 296 -166 328 -121 568 -104 816 57 171 111
322 276 414 452 l37 70 7 -60 c23 -201 78 -342 165 -432 135 -136 398 -232
639 -232 111 0 317 18 357 31 18 5 56 34 85 64 30 30 57 55 61 55 5 0 25 -15
45 -33 53 -47 168 -115 228 -133 77 -25 257 -30 344 -10 209 48 378 180 479
373 92 177 95 355 11 531 -65 135 -193 244 -342 292 -57 18 -34 31 25 13 119
-35 184 -12 249 90 65 100 56 110 -105 120 -123 8 -154 -4 -201 -77 -18 -28
-54 -71 -80 -96 l-47 -45 7 45 c4 25 16 80 27 123 23 85 20 96 -27 100 -28 2
-30 -1 -46 -63 -31 -114 -57 -185 -62 -170 -3 8 -10 35 -17 60 -6 25 -25 75
-42 112 l-31 68 17 45 c24 62 98 159 143 189 48 31 84 40 263 66 203 30 270
62 314 153 38 76 44 179 17 282 l-21 80 30 43 c52 74 83 159 88 245 4 74 3 82
-32 152 -40 80 -116 160 -190 197 -22 11 -42 21 -43 22 -2 2 9 47 23 102 35
135 31 257 -9 326 -35 60 -157 172 -244 224 -110 66 -190 88 -292 81 -47 -3
-106 -13 -130 -21 -24 -9 -49 -16 -55 -16 -6 0 -28 27 -49 59 -20 32 -70 91
-110 130 -112 112 -224 156 -353 140z m186 -71 c30 -13 70 -38 89 -54 42 -35
170 -189 192 -231 l17 -31 58 20 c38 13 96 22 164 25 89 4 113 2 157 -15 118
-45 286 -182 334 -272 20 -37 24 -59 23 -125 -2 -89 -34 -224 -64 -266 l-19
-27 57 -21 c93 -36 177 -111 218 -196 44 -92 26 -214 -50 -345 l-47 -81 21
-65 c22 -74 26 -176 8 -236 -6 -22 -28 -57 -49 -78 -46 -47 -100 -65 -254 -85
-139 -19 -213 -34 -245 -50 -45 -23 -157 -144 -176 -191 -20 -48 -25 -52 -44
-29 -11 13 -9 29 10 93 13 42 29 87 37 100 12 20 10 26 -9 23 -15 -2 -8 18 22
62 36 54 54 98 42 106 -13 8 -7 54 6 59 7 2 12 13 12 23 0 11 5 17 10 14 6 -4
9 -2 8 3 -6 19 94 131 147 167 57 37 68 60 17 35 -54 -28 -135 -105 -185 -177
-36 -51 -54 -69 -60 -60 -5 7 -6 4 -2 -10 4 -16 -1 -30 -19 -48 -30 -29 -47
-26 -38 8 12 48 69 167 77 160 4 -5 5 -3 1 4 -9 16 78 178 203 378 192 306
217 372 175 461 -26 54 -107 88 -209 89 -112 0 -151 -14 -221 -82 -33 -32 -60
-62 -60 -68 0 -5 -5 -23 -12 -38 -11 -26 -22 -107 -37 -280 -5 -44 -10 -65
-17 -61 -6 4 -8 3 -5 -3 8 -13 -13 -93 -25 -93 -5 0 -6 -4 -3 -10 10 -16 -6
-34 -17 -19 -6 10 -7 6 -3 -11 3 -18 -3 -34 -25 -60 -20 -23 -30 -29 -30 -18
0 9 5 18 10 20 7 2 5 15 -5 36 -9 17 -14 41 -10 52 4 11 2 20 -4 20 -6 0 -11
7 -11 16 0 23 -31 87 -47 97 -7 5 -11 12 -8 18 4 5 2 9 -4 9 -10 0 -4 27 22
95 8 22 27 73 42 113 15 39 30 72 34 72 4 0 17 18 30 40 12 22 27 42 33 46 7
4 8 3 4 -5 -8 -12 51 40 140 125 44 41 54 57 54 83 0 43 -42 103 -127 181
-111 102 -146 117 -207 85 -15 -8 -35 -15 -42 -15 -8 0 -18 -8 -21 -17 -9 -23
-94 -109 -105 -105 -4 1 -8 -5 -8 -13 0 -8 -13 -28 -29 -44 -16 -17 -32 -40
-36 -51 -4 -13 -12 -19 -21 -16 -8 3 -12 1 -9 -4 3 -5 -5 -26 -17 -47 -44 -72
-49 -93 -58 -287 -8 -185 -14 -226 -30 -226 -4 0 -7 -8 -6 -17 0 -11 -6 -17
-16 -17 -10 1 -15 -2 -12 -7 7 -12 -18 -37 -32 -32 -7 2 -19 -3 -27 -11 -14
-14 -16 -6 -22 79 -4 52 -5 111 -2 132 3 21 8 63 10 93 3 30 10 69 17 85 7 17
13 33 12 37 -1 4 10 31 25 60 31 61 83 146 83 134 0 -4 14 18 31 50 43 81 50
128 28 182 -10 23 -16 42 -14 42 13 0 -64 70 -92 84 -79 40 -156 3 -315 -152
-168 -164 -182 -204 -158 -448 12 -127 18 -418 10 -509 -4 -38 -7 -58 -8 -42
-1 15 -6 27 -11 27 -5 0 -12 19 -16 43 -8 52 -34 139 -46 152 -13 14 -11 -14
5 -71 8 -27 17 -69 21 -94 4 -25 9 -53 12 -64 3 -10 1 -16 -4 -13 -4 3 -15 0
-24 -6 -12 -9 -17 -37 -21 -117 -4 -76 -13 -127 -32 -184 -26 -78 -34 -136
-18 -136 4 0 25 51 47 113 28 82 39 134 43 195 l5 83 31 -30 c18 -17 37 -31
43 -31 23 0 31 366 13 585 -25 288 -25 309 0 360 28 58 195 229 273 278 80 52
118 51 169 -5 79 -86 74 -134 -29 -289 -108 -163 -140 -309 -129 -586 8 -182
11 -169 -72 -296 -60 -92 -84 -137 -74 -137 23 0 62 47 149 178 152 230 189
269 285 293 40 9 56 9 100 -6 104 -34 138 -82 145 -210 5 -72 -17 -267 -35
-313 -3 -10 -1 -13 7 -8 6 4 27 38 45 74 19 37 63 115 98 173 36 59 72 130 82
158 9 29 23 124 31 212 17 182 34 228 105 293 54 49 76 56 173 56 233 -1 243
-109 40 -415 -158 -238 -273 -458 -339 -645 -22 -64 -31 -120 -19 -120 3 0 30
16 60 37 31 20 57 34 59 32 2 -2 -20 -44 -50 -94 -59 -99 -67 -120 -29 -85 21
20 25 21 25 7 0 -33 -34 -139 -46 -144 -6 -2 -48 5 -92 16 -44 12 -87 21 -96
21 -25 0 -21 -85 8 -146 31 -68 70 -102 123 -110 l43 -6 0 -48 0 -49 -57 -11
c-106 -22 -211 -76 -290 -148 -23 -22 -44 -39 -45 -38 -2 1 -2 0 -2 -2 1 -2
-13 -29 -32 -59 -61 -101 -77 -157 -82 -279 -3 -91 0 -124 17 -188 25 -92 59
-162 112 -233 21 -29 39 -59 39 -68 0 -9 -21 -38 -46 -65 -62 -67 -101 -75
-364 -74 -239 0 -307 13 -463 90 -213 104 -280 196 -322 438 -22 129 -19 227
10 352 14 59 30 168 36 243 6 86 18 160 31 201 12 36 72 166 135 290 129 256
146 315 126 434 -18 104 -36 131 -196 286 -115 112 -156 159 -179 205 -17 33
-41 74 -54 91 -30 39 -30 68 -2 119 21 37 23 53 23 210 0 141 3 179 19 224 24
69 95 143 174 179 75 34 188 36 276 4 88 -33 93 -31 111 36 41 149 69 198 147
257 77 59 234 152 298 175 76 28 184 23 260 -12z m-5672 -67 c23 -7 42 -16 42
-22 0 -6 -4 -8 -8 -5 -4 2 -8 -3 -9 -12 -1 -9 -5 -29 -9 -44 -8 -35 8 -36 26
-3 47 87 184 112 260 48 31 -26 32 -26 99 -13 63 12 71 11 116 -9 49 -22 77
-51 82 -84 2 -12 -1 -16 -9 -11 -10 6 -10 4 -2 -7 6 -8 15 -27 21 -43 l9 -28
26 39 c38 58 113 76 218 52 62 -14 114 -53 150 -111 17 -27 38 -52 48 -55 41
-16 46 -31 52 -163 0 -13 1 -13 10 0 17 26 11 -6 -9 -53 -11 -25 -24 -48 -30
-51 -15 -10 -14 7 1 22 8 8 9 12 1 12 -6 0 -9 10 -7 23 4 20 4 20 -4 2 -5 -11
-7 -26 -4 -33 2 -8 -5 -16 -17 -19 -11 -3 -21 -9 -21 -14 0 -5 -11 -7 -24 -5
-17 3 -25 -1 -29 -14 -3 -14 0 -17 12 -13 9 2 -8 -10 -36 -27 -51 -31 -54 -31
-109 -20 -37 8 -52 15 -44 20 7 5 19 6 27 3 9 -4 11 0 7 11 -3 9 -10 13 -15
10 -5 -3 -9 1 -9 8 0 7 -3 24 -6 38 -5 20 -4 22 6 10 9 -13 11 -12 7 5 -2 11
-9 19 -16 17 -14 -3 -41 21 -41 37 0 6 -5 11 -11 11 -8 0 -10 14 -6 40 3 24 1
39 -5 37 -6 -1 -13 4 -16 12 -3 8 0 11 7 7 7 -5 9 -1 5 8 -3 9 -10 13 -15 10
-5 -3 -9 -1 -9 5 0 13 -79 60 -133 78 -27 10 -73 14 -127 13 -47 -1 -92 -3
-100 -3 -8 0 -24 3 -35 7 -16 6 -17 6 -5 -3 13 -9 12 -11 -3 -11 -10 0 -15 -5
-12 -10 3 -6 -7 -18 -24 -28 -17 -9 -31 -22 -31 -28 0 -12 -118 -25 -151 -17
-31 8 -3 33 40 35 36 1 36 1 4 5 -18 2 -41 -1 -53 -7 -16 -8 -25 -7 -45 7 -24
18 -36 41 -13 27 7 -4 8 -3 4 4 -4 7 -24 12 -45 12 -20 0 -42 5 -48 11 -7 7
-28 9 -55 5 -23 -3 -54 -6 -66 -6 -13 0 -31 -5 -40 -11 -15 -9 -14 -10 3 -5
20 6 20 6 1 -9 -11 -8 -28 -15 -38 -15 -9 0 -32 -16 -49 -35 -18 -19 -34 -33
-37 -30 -3 2 -16 -19 -29 -47 -17 -38 -24 -68 -23 -108 2 -59 -3 -96 -20 -159
-9 -36 -15 -41 -48 -46 -67 -12 -66 -17 8 -29 32 -6 37 -12 60 -66 14 -33 28
-60 32 -60 4 0 9 -8 12 -17 3 -10 22 -36 42 -58 21 -24 31 -31 24 -17 -19 38
-5 35 23 -5 28 -40 28 -54 0 -32 -16 13 -17 12 -4 -4 8 -10 21 -15 29 -12 22
8 55 -31 47 -55 -4 -11 -11 -17 -17 -14 -7 5 -9 -2 -4 -20 4 -18 3 -25 -4 -21
-14 9 -13 -28 2 -43 8 -8 15 -9 25 0 11 8 12 7 7 -7 -6 -14 -3 -16 17 -11 13
3 4 -3 -21 -15 -38 -17 -65 -20 -171 -21 -110 0 -131 3 -165 22 -48 26 -84 68
-84 97 0 14 -11 29 -27 40 -86 53 -127 119 -127 208 -1 72 17 118 50 134 21 9
23 13 12 31 -7 11 -16 20 -20 20 -4 0 -15 25 -24 56 -26 90 0 170 76 232 22
18 40 40 40 48 0 7 16 32 36 54 38 42 106 70 171 70 30 0 33 3 33 31 0 34 47
86 126 141 21 15 51 37 66 49 22 18 127 42 148 33 3 -1 24 -7 48 -13z m604
-353 c64 -27 89 -68 87 -141 -2 -48 1 -58 24 -79 26 -23 38 -72 24 -96 -5 -6
-6 -16 -2 -21 3 -5 1 -13 -5 -16 -8 -5 -8 -11 0 -20 7 -8 8 -20 4 -27 -5 -7
-9 -15 -9 -18 -3 -24 -32 -80 -41 -80 -15 0 -26 -28 -17 -42 3 -6 1 -8 -4 -5
-10 6 -28 -19 -25 -35 1 -4 -5 -5 -13 -2 -8 4 -15 1 -15 -6 0 -7 -7 -10 -16
-6 -12 4 -14 1 -9 -14 5 -15 2 -20 -12 -20 -11 0 -24 -12 -31 -30 -11 -24 -18
-29 -37 -24 -18 4 -25 1 -30 -15 -3 -12 -13 -21 -21 -21 -8 0 -12 5 -9 10 3 6
-1 10 -9 10 -9 0 -16 -6 -17 -12 0 -10 -2 -10 -6 0 -2 6 -14 12 -24 12 -11 0
-17 -4 -14 -10 3 -5 2 -10 -3 -10 -6 0 -12 6 -15 14 -4 10 3 16 21 19 24 4 24
4 -5 6 -19 0 -33 6 -33 14 0 9 -2 9 -8 -1 -13 -19 -64 2 -56 23 7 18 -7 20
-25 3 -11 -11 -13 -10 -8 5 6 15 3 17 -12 12 -11 -3 -22 -1 -26 5 -3 5 -1 10
6 10 7 0 10 2 8 5 -3 2 -23 -3 -44 -11 -33 -12 -35 -14 -10 -10 28 4 29 3 10
-11 -12 -8 -31 -12 -47 -9 -17 3 -33 0 -42 -9 -8 -8 -27 -15 -43 -16 -25 0
-26 -1 -8 -9 14 -6 1 -9 -45 -9 -36 -1 -76 -4 -90 -6 -22 -5 -22 -4 -5 4 17 8
15 10 -15 11 -29 1 -32 3 -15 10 19 8 19 9 -2 9 -12 1 -24 5 -28 11 -3 5 -11
7 -18 4 -22 -8 -163 146 -176 191 -18 65 -14 126 10 151 20 21 20 23 4 70 -21
63 -14 99 34 154 49 57 119 93 193 98 48 4 64 0 100 -21 24 -14 56 -39 71 -57
21 -23 33 -29 45 -24 9 4 49 9 88 10 70 2 73 3 111 44 23 25 52 45 73 50 52
12 179 0 232 -22z m-2250 5 c28 -33 28 -51 0 -82 -15 -15 -38 -31 -52 -34 -14
-3 -35 -8 -47 -11 -29 -6 -56 20 -49 48 3 12 6 27 6 34 0 6 7 12 16 12 9 0 29
11 46 25 35 29 59 32 80 8z m608 -55 c21 -17 24 -28 25 -79 1 -54 -1 -60 -22
-66 -15 -3 -31 1 -42 11 -22 20 -40 20 -63 -1 -10 -9 -18 -12 -18 -6 0 5 9 18
20 28 24 22 25 42 4 66 -22 25 -11 66 19 71 28 5 46 -1 77 -24z m-260 -27 c29
-5 36 -11 38 -35 4 -28 3 -28 -40 -21 -24 4 -44 11 -46 16 -2 5 -12 9 -23 9
-10 0 -19 6 -19 13 0 20 23 38 40 31 8 -4 31 -10 50 -13z m2530 -65 c7 -11 14
-38 15 -59 2 -29 11 -48 40 -77 34 -34 37 -42 31 -74 -6 -29 -4 -36 9 -36 22
0 41 -51 39 -102 -3 -70 -4 -75 -14 -53 -7 16 -9 14 -9 -15 -1 -26 -4 -31 -11
-20 -8 12 -10 9 -10 -12 0 -16 -4 -28 -9 -28 -5 0 -8 -11 -7 -25 0 -14 7 -25
14 -25 6 0 12 -10 12 -22 0 -19 -2 -20 -10 -8 -8 12 -10 9 -10 -12 0 -15 -5
-30 -10 -33 -6 -4 -9 -14 -6 -23 3 -10 -2 -26 -10 -37 -13 -17 -16 -18 -24 -5
-5 8 -10 10 -10 4 0 -5 5 -15 12 -22 9 -9 9 -12 0 -12 -18 0 -82 -61 -82 -78
0 -8 -6 -12 -15 -8 -8 3 -15 1 -15 -4 0 -5 -6 -7 -14 -4 -8 3 -17 1 -21 -5 -3
-6 0 -11 7 -11 7 0 2 -7 -10 -16 -16 -11 -47 -16 -105 -16 -93 -1 -127 7 -127
28 0 8 -4 14 -10 14 -5 0 -10 -4 -10 -10 0 -5 -6 -10 -14 -10 -9 0 -12 7 -9
19 3 11 -2 21 -11 24 -11 4 -13 1 -10 -11 5 -15 4 -15 -5 -2 -10 13 -12 13
-21 0 -6 -10 -10 -11 -10 -3 0 22 34 53 57 53 25 0 72 39 51 41 -7 1 7 5 31
10 25 5 47 12 50 16 9 12 93 52 116 55 11 2 20 10 20 19 0 9 8 27 18 40 17 23
17 23 7 1 -6 -13 -9 -28 -7 -35 3 -11 26 43 28 68 1 18 21 35 32 28 5 -3 7 -1
4 4 -8 13 17 66 26 56 10 -9 7 119 -3 142 -5 11 -9 16 -9 11 -1 -5 -15 11 -33
35 -17 24 -36 47 -42 51 -6 4 -12 13 -12 20 -1 7 -2 18 -3 23 -1 6 -5 3 -11
-5 -5 -8 -12 -11 -16 -7 -4 4 6 22 24 40 34 35 62 93 62 130 0 13 3 26 6 30 9
8 39 -12 54 -37z m4755 -68 c81 -80 105 -109 105 -130 0 -20 -21 -45 -96 -114
-53 -49 -108 -106 -124 -129 -40 -58 -89 -178 -103 -253 -6 -35 -17 -67 -24
-69 -6 -2 -24 2 -41 11 -59 31 -141 31 -216 1 -15 -7 -17 -5 -12 12 4 11 11
94 16 184 5 90 14 181 20 201 18 63 109 188 210 291 130 130 127 130 265 -5z
m-7645 55 c0 -16 11 -80 23 -142 14 -68 21 -128 17 -145 -6 -28 -7 -26 -15 24
-5 30 -9 60 -10 65 -1 6 -5 17 -8 25 -15 41 -33 158 -28 193 3 20 21 3 21 -20z
m93 3 c7 -16 -11 -33 -33 -32 -22 1 -24 33 -3 39 30 8 31 8 36 -7z m-364 -27
c23 -29 23 -30 5 -51 -19 -20 -19 -21 5 -37 13 -9 44 -35 69 -58 26 -24 50
-43 55 -43 4 0 6 -4 3 -9 -3 -5 5 -17 19 -27 13 -10 22 -21 19 -25 -2 -4 3 -9
11 -12 7 -3 22 -21 31 -39 l17 -33 -38 40 c-20 22 -44 49 -54 60 -9 11 -43 44
-74 73 -50 46 -62 53 -85 47 -15 -4 -31 -13 -35 -21 -4 -8 -21 -14 -38 -14
-24 0 -32 7 -47 36 -17 36 -17 37 6 52 12 8 22 23 22 33 0 11 11 24 25 31 14
6 25 15 25 20 0 19 37 5 59 -23z m724 -66 c-29 -45 -84 -117 -99 -128 -12 -9
-35 -48 -102 -175 -16 -30 -33 -70 -37 -89 -6 -30 -9 -32 -17 -16 -6 10 -7 20
-1 24 5 3 22 37 38 75 16 38 54 105 84 150 71 106 192 249 134 159z m4534 5
c72 -28 147 -99 162 -154 6 -22 11 -64 11 -95 l0 -56 -52 -9 c-29 -4 -58 -8
-64 -9 -6 0 -21 -7 -35 -16 -37 -24 -56 -28 -68 -16 -8 8 -11 7 -11 -6 0 -21
1 -21 -68 -1 -98 29 -215 -3 -303 -83 -26 -24 -39 -30 -43 -21 -3 7 -4 4 -1
-7 5 -23 -26 -65 -49 -65 -9 0 -16 -4 -16 -10 0 -5 -7 -7 -15 -4 -8 4 -12 10
-9 15 3 5 -20 9 -51 9 -31 0 -54 4 -51 8 6 11 -91 -2 -141 -19 -80 -26 -174
-108 -202 -177 -9 -21 -19 -31 -28 -28 -8 3 -12 2 -9 -2 2 -4 -30 -7 -72 -7
-90 -1 -120 -14 -195 -84 -41 -38 -81 -102 -88 -139 -4 -22 -23 -44 -47 -53
-40 -15 -69 6 -102 77 -24 49 -30 75 -30 125 1 75 12 99 68 144 42 33 42 33
89 19 56 -17 122 -19 107 -4 -6 6 -33 16 -60 23 -47 12 -49 13 -52 51 -5 55
32 165 72 218 61 79 155 117 249 99 52 -9 102 -40 173 -107 26 -25 49 -42 52
-39 7 6 -42 75 -78 110 -17 16 -30 34 -30 39 0 20 82 107 119 125 89 46 234
51 290 11 16 -11 33 -20 38 -20 5 0 8 -24 5 -52 -4 -59 8 -120 26 -126 9 -3
12 15 12 62 0 35 4 76 10 91 26 67 152 159 265 192 67 19 157 15 222 -9z
m-2279 -98 c46 -28 90 -78 114 -128 17 -38 18 -48 7 -74 -7 -16 -20 -40 -30
-51 -67 -82 -85 -98 -120 -113 -21 -10 -39 -24 -39 -31 0 -7 -4 -13 -10 -13
-5 0 -10 5 -10 10 0 6 -8 10 -17 9 -11 0 -13 -3 -5 -6 18 -7 15 -23 -5 -21
-10 1 -34 0 -53 -1 -27 -1 -31 -4 -20 -11 11 -7 4 -10 -27 -10 -34 0 -41 3
-37 15 4 8 1 15 -6 15 -6 0 -8 5 -5 10 3 6 1 10 -6 10 -6 0 -9 -8 -6 -20 3
-13 0 -20 -9 -20 -8 0 -14 6 -14 14 0 9 -7 12 -22 9 -18 -4 -20 -2 -9 5 11 8
8 11 -14 14 -16 2 -31 9 -33 17 -3 8 0 11 6 7 13 -8 10 27 -3 36 -6 4 -2 8 8
8 9 0 16 6 15 13 -2 6 2 11 9 10 9 -2 10 4 3 23 -11 28 -6 44 13 44 8 0 8 -3
-2 -9 -8 -5 -9 -11 -3 -15 11 -7 28 31 18 41 -3 3 2 12 10 20 8 9 13 22 10 29
-3 8 1 14 8 14 9 0 16 20 21 65 4 38 11 65 18 66 35 3 84 -4 96 -14 11 -9 15
-9 19 2 4 11 75 50 92 51 3 0 20 -9 38 -20z m2752 -66 c62 -18 91 -36 141 -84
47 -45 69 -90 69 -137 0 -24 3 -33 9 -25 12 19 22 -67 14 -123 -3 -25 -9 -45
-12 -45 -4 0 -7 -8 -8 -17 -5 -57 -81 -172 -105 -157 -7 4 -8 3 -4 -4 8 -14
-95 -66 -137 -70 -29 -2 -95 26 -67 29 8 1 21 2 29 3 8 0 16 7 18 14 3 7 -1
10 -11 6 -19 -7 -21 7 -4 24 7 7 8 12 3 12 -6 0 -4 4 4 9 10 6 14 33 15 92 1
74 -2 91 -29 144 -16 33 -28 64 -27 68 1 5 -1 6 -6 3 -5 -3 -22 8 -38 25 -15
16 -48 41 -71 55 -28 16 -41 29 -36 37 4 7 6 20 4 31 -1 10 0 29 4 43 4 19 10
23 28 18 17 -5 19 -4 7 4 -19 13 -13 18 51 41 66 24 91 24 159 4z m-5401 -86
c4 6 7 -10 8 -36 1 -40 0 -43 -7 -17 -4 17 -10 37 -12 45 -3 8 -3 11 0 6 2 -4
7 -3 11 2z m162 -51 c-13 -13 -15 1 -4 30 7 17 8 17 11 -1 2 -10 -1 -23 -7
-29z m-221 -14 c11 -21 27 -48 36 -60 9 -13 12 -23 6 -23 -5 0 -26 27 -45 60
-20 33 -32 60 -27 60 5 0 19 -17 30 -37z m5220 -73 c82 -42 142 -138 142 -229
0 -63 -34 -151 -58 -151 -8 0 -14 -6 -14 -14 0 -14 -34 -30 -59 -26 -8 1 -10
-3 -5 -11 5 -9 2 -10 -10 -6 -10 4 -15 3 -11 -3 4 -6 -6 -10 -22 -11 -25 0
-26 -1 -8 -9 23 -10 10 -13 -40 -11 -24 2 -27 0 -15 -9 12 -9 6 -10 -25 -6
-132 17 -193 18 -273 1 -93 -19 -120 -14 -179 31 -78 59 -123 178 -101 267 21
83 115 162 209 174 102 14 173 -23 185 -97 10 -63 28 -63 22 1 -6 57 -5 59 47
96 54 37 155 44 215 13z m-5104 -42 c9 -29 21 -58 25 -64 5 -6 5 -14 1 -18 -4
-4 -7 -12 -7 -17 0 -5 -3 -9 -7 -9 -5 0 -14 0 -22 0 -21 0 -36 54 -26 89 5 17
6 39 3 51 -3 11 -1 20 5 20 6 0 18 -24 28 -52z m-49 0 c-3 -8 -6 -5 -6 6 -1
11 2 17 5 13 3 -3 4 -12 1 -19z m5814 -25 c50 -31 82 -69 123 -146 29 -55 36
-78 36 -125 0 -31 7 -82 15 -112 8 -30 15 -74 15 -98 0 -45 -25 -106 -39 -97
-5 3 -12 -2 -15 -11 -3 -8 -2 -12 4 -9 6 3 7 -1 4 -9 -3 -9 -10 -13 -15 -10
-5 3 -9 0 -9 -6 0 -14 -12 -26 -62 -64 l-38 -28 -9 23 c-5 13 -10 18 -10 10
-1 -7 -19 6 -40 30 -31 34 -38 50 -34 69 5 25 5 25 -11 5 -16 -19 -17 -19 -14
-1 4 22 14 29 91 57 31 11 57 25 57 30 0 11 -23 7 -130 -23 l-75 -20 -39 33
c-22 19 -49 43 -60 54 -11 11 -36 30 -55 41 -31 19 -32 22 -14 28 10 3 30 16
42 27 19 18 25 19 33 8 7 -11 8 -9 4 5 -5 14 3 30 27 55 19 20 46 64 59 98 14
35 27 61 29 59 2 -3 3 33 1 78 l-3 83 48 -7 c27 -3 65 -16 84 -27z m-3565 3
c0 -14 -5 -21 -9 -17 -4 4 -5 15 -1 24 9 24 12 21 10 -7z m-349 8 c-3 -3 -12
-4 -19 -1 -8 3 -5 6 6 6 11 1 17 -2 13 -5z m30 -16 c-3 -8 -6 -5 -6 6 -1 11 2
17 5 13 3 -3 4 -12 1 -19z m-128 1 c7 11 11 10 19 -6 12 -21 105 -70 153 -80
31 -6 31 -6 24 -56 -3 -28 -17 -75 -31 -104 -13 -30 -24 -56 -24 -59 0 -3 -9
-24 -19 -47 -38 -85 -71 -167 -71 -178 0 -8 4 -8 15 1 8 7 15 16 15 21 0 9 32
82 86 196 19 39 34 74 34 77 0 3 12 30 26 61 26 54 27 55 68 55 22 0 66 9 96
21 51 19 57 20 85 5 17 -8 42 -20 58 -25 15 -6 27 -15 27 -21 0 -15 -26 -12
-40 5 -7 9 -15 13 -18 10 -3 -3 3 -15 14 -27 15 -18 16 -20 2 -9 -10 7 -18 10
-18 6 0 -4 -7 -2 -15 5 -9 8 -15 9 -15 2 0 -6 10 -18 23 -27 19 -13 20 -17 7
-25 -8 -5 -11 -10 -7 -10 5 0 -1 -13 -12 -29 -12 -16 -21 -32 -21 -35 0 -4
-11 -23 -25 -44 -34 -52 -59 -155 -51 -215 3 -27 20 -91 37 -143 18 -52 30
-96 27 -100 -3 -3 -23 2 -44 11 -129 55 -396 118 -570 136 l-121 12 33 55 c78
129 83 219 18 318 -41 62 -52 77 -96 129 -28 33 -36 51 -18 40 6 -3 15 -3 22
1 8 5 7 9 -5 13 -9 3 22 6 68 5 47 -1 85 2 85 6 0 4 13 6 29 5 17 -1 29 2 28
7 -2 11 73 39 85 32 4 -3 8 1 8 8 0 9 3 9 10 -2 8 -13 11 -13 19 -1z m-1695
-64 c-6 -16 -24 -21 -24 -7 0 11 11 22 21 22 5 0 6 -7 3 -15z m4207 -65 c54
-22 94 -48 97 -65 15 -67 60 -166 82 -180 5 -3 7 -13 4 -23 -4 -12 -3 -13 3
-4 12 16 49 -24 51 -55 1 -24 -83 -107 -99 -98 -4 3 -13 -3 -19 -14 -6 -11
-25 -23 -45 -27 -21 -4 -32 -10 -28 -17 4 -6 0 -8 -11 -4 -10 4 -15 3 -11 -3
9 -14 -50 -40 -106 -47 -42 -5 -60 -1 -110 22 -39 19 -55 31 -47 37 10 6 9 8
-3 8 -24 0 -76 60 -100 115 -15 35 -22 71 -23 120 -1 61 3 75 28 112 30 45 70
79 126 108 78 40 136 44 211 15z m-2921 0 c0 -5 -5 -10 -11 -10 -5 0 -7 5 -4
10 3 6 8 10 11 10 2 0 4 -4 4 -10z m1055 -29 c-3 -6 -11 -11 -17 -11 -6 0 -6
6 2 15 14 17 26 13 15 -4z m-2120 -6 c88 -23 198 -90 276 -169 38 -38 69 -75
69 -82 0 -7 4 -14 8 -16 15 -6 68 -92 94 -153 51 -117 66 -204 75 -426 5 -136
-1 -213 -33 -414 -51 -319 -177 -797 -205 -780 -5 4 -6 -1 -3 -10 4 -9 -1 -32
-10 -51 -9 -18 -22 -49 -30 -66 -93 -221 -137 -303 -188 -351 -40 -38 -40 -38
-66 -21 -39 25 -72 60 -130 137 -87 115 -88 118 -14 141 53 17 23 22 -41 7
-35 -8 -39 -7 -60 22 -38 54 -91 147 -167 292 -29 55 -59 110 -67 122 -9 13
-13 30 -9 38 3 8 2 15 -3 15 -8 0 -91 172 -91 190 0 5 -9 27 -21 49 -11 22
-17 46 -13 52 4 8 3 9 -4 5 -7 -4 -12 -1 -12 6 0 13 -31 96 -62 164 -10 22
-18 45 -18 51 0 6 -9 33 -20 58 -51 119 -99 354 -100 486 0 187 49 340 156
480 77 101 172 167 306 213 62 21 91 25 198 25 83 1 146 -4 185 -14z m5837
-242 c70 -71 136 -147 148 -170 28 -55 36 -146 20 -225 -9 -41 -53 -140 -130
-293 l-116 -231 -27 116 c-29 124 -89 269 -156 374 -41 65 -49 86 -32 86 20 0
138 129 159 173 26 56 29 144 7 207 -16 46 -20 90 -7 90 4 0 64 -57 134 -127z
m-2294 44 c10 -9 24 -44 30 -77 7 -34 26 -83 42 -109 39 -64 131 -147 170
-156 23 -5 29 -10 21 -18 -6 -6 -11 -19 -11 -28 0 -12 -6 -17 -18 -14 -15 3
-17 -2 -14 -27 4 -27 2 -29 -16 -24 -11 4 -23 2 -27 -3 -4 -7 1 -8 11 -4 12 4
15 2 12 -8 -3 -8 -10 -13 -15 -12 -6 1 -8 -8 -6 -21 3 -13 0 -26 -5 -30 -6 -4
-8 3 -6 16 3 17 0 15 -10 -7 -8 -16 -25 -33 -37 -36 -36 -10 -116 -10 -101 0
8 5 -6 6 -35 4 -72 -7 -164 33 -226 100 -88 94 -100 216 -34 343 17 34 81 94
123 118 37 21 126 17 152 -7z m1407 -16 c-3 -6 -11 -11 -17 -11 -6 0 -6 6 2
15 14 17 26 13 15 -4z m-4293 -87 c21 -38 28 -64 29 -114 1 -36 3 -57 6 -47 2
9 9 14 15 11 7 -4 8 -2 4 5 -4 6 -5 29 -1 51 5 30 11 38 26 37 26 -2 43 -58
34 -111 -4 -22 -11 -90 -15 -151 -3 -60 -7 -92 -8 -70 -1 22 -9 63 -17 90 -8
28 -12 34 -8 15 11 -57 10 -214 -1 -222 -5 -4 -22 -4 -36 -2 -31 6 -60 -14
-63 -45 -1 -12 -9 -27 -19 -32 -17 -9 -18 -3 -18 75 0 152 -34 331 -80 421
-27 53 -25 65 12 110 60 69 93 64 140 -21z m2236 50 c50 -14 53 -17 83 -79 18
-35 39 -72 48 -82 21 -22 19 -68 -4 -113 -24 -46 -15 -156 18 -219 44 -86 65
-126 86 -172 12 -25 37 -61 56 -81 42 -43 143 -82 223 -87 7 -1 10 -6 7 -11
-4 -6 -10 -8 -15 -5 -4 2 -13 -9 -20 -25 -13 -31 -97 -90 -128 -90 -36 0 -117
-34 -171 -72 -30 -21 -61 -36 -68 -34 -7 3 -13 1 -13 -3 0 -17 -93 -32 -129
-21 -23 6 -48 6 -77 -1 -24 -6 -60 -8 -81 -4 l-37 7 40 18 c56 26 92 64 104
112 21 77 -14 111 -154 148 -138 38 -222 21 -311 -61 l-42 -39 -28 27 c-38 38
-55 83 -55 142 0 59 10 87 41 120 19 20 24 37 24 86 1 44 7 72 23 97 15 24 23
56 26 105 5 88 30 144 89 205 50 51 84 72 137 83 19 4 60 20 90 36 45 24 67
29 120 28 36 0 89 -7 118 -15z m2320 -85 c270 -217 431 -486 488 -812 22 -125
14 -379 -14 -487 -67 -251 -200 -464 -395 -630 -106 -90 -189 -139 -307 -181
-88 -31 -104 -33 -210 -32 -395 4 -788 254 -983 626 -93 176 -131 338 -130
552 1 209 40 378 132 580 73 160 75 162 128 170 26 4 65 16 87 27 67 34 204
125 248 166 31 27 53 39 78 40 19 1 64 9 100 18 57 14 79 15 177 4 88 -10 125
-11 165 -2 29 7 98 16 153 22 56 5 112 14 125 19 14 5 30 10 35 10 6 0 61 -40
123 -90z m-6313 -89 c4 -6 -4 -22 -18 -36 -21 -21 -29 -23 -51 -14 -14 5 -26
17 -26 25 0 27 81 48 95 25z m4275 -64 c0 -13 9 -54 21 -91 17 -55 30 -76 76
-122 31 -30 77 -64 102 -75 56 -24 177 -47 252 -48 l56 0 -31 -120 -31 -120
-44 0 c-25 0 -63 9 -85 19 -23 10 -71 21 -109 25 -37 3 -83 13 -101 21 -48 23
-103 82 -117 124 -6 20 -29 66 -50 102 -68 114 -74 218 -16 283 30 35 77 36
77 2z m-4490 -9 c0 -24 -37 -57 -64 -57 -38 0 -37 42 2 57 38 15 62 15 62 0z
m340 4 c0 -5 -3 -17 -6 -25 -5 -13 -9 -14 -20 -5 -11 9 -11 15 -3 25 13 16 29
18 29 5z m1841 -12 c14 -7 18 -17 15 -32 -3 -12 -3 -16 0 -9 11 25 23 11 29
-35 3 -27 8 -61 11 -78 13 -85 15 -165 7 -212 -7 -37 -7 -51 1 -50 13 2 20
-48 10 -71 -4 -10 -6 -37 -6 -62 2 -44 0 -46 -46 -75 -26 -16 -55 -33 -66 -37
-10 -5 -27 -20 -38 -34 -32 -41 -31 -21 2 35 16 29 30 55 30 59 0 3 11 16 24
27 53 46 74 135 36 155 -11 6 -20 16 -20 22 0 6 -7 19 -15 28 -13 15 -13 22 2
66 9 27 19 51 23 54 6 4 30 89 30 105 0 4 -6 0 -14 -7 -7 -8 -18 -36 -24 -64
-34 -155 -52 -138 -52 51 0 136 2 155 18 164 21 13 20 13 43 0z m-1914 -28
l22 -28 -24 -79 c-13 -43 -27 -92 -32 -109 -6 -21 -9 3 -11 85 -4 163 4 187
45 131z m113 -7 c0 -8 -9 -14 -20 -14 -19 0 -28 28 -13 43 9 9 33 -12 33 -29z
m2347 16 c139 -24 367 -84 438 -116 60 -26 114 -70 126 -101 9 -25 -19 -213
-46 -305 -15 -55 -18 -58 -48 -58 -18 0 -50 -5 -72 -11 -22 -6 -72 -16 -112
-23 -39 -6 -75 -14 -78 -18 -4 -4 -4 -23 -1 -43 5 -26 25 -54 70 -100 35 -36
71 -65 80 -65 19 0 20 -9 5 -47 -6 -15 -15 -37 -19 -48 -4 -11 -16 -40 -27
-65 -11 -25 -35 -80 -54 -122 l-34 -77 -30 23 c-28 21 -86 46 -108 46 -21 0
21 -35 74 -60 31 -14 54 -31 51 -38 -2 -7 -8 -10 -12 -7 -5 3 -12 0 -16 -6 -4
-8 -3 -9 4 -5 7 4 12 5 12 1 0 -8 -79 -147 -94 -165 -7 -8 -15 -22 -18 -30 -9
-22 -138 -195 -138 -184 0 15 -83 54 -127 61 l-38 5 35 -21 c19 -11 47 -25 63
-31 15 -7 27 -18 27 -26 0 -8 6 -11 17 -7 26 10 -11 -38 -99 -128 -82 -85
-151 -135 -169 -123 -8 4 -9 3 -5 -5 9 -14 -92 -61 -132 -61 -33 0 -42 6 -69
46 -20 28 -21 33 -8 72 13 38 50 238 57 307 3 31 8 33 63 21 27 -7 26 -5 -12
19 -24 15 -43 34 -43 44 2 63 28 393 32 397 3 2 30 -5 59 -17 80 -32 134 -46
233 -64 178 -31 165 -13 -24 34 -176 43 -258 77 -266 107 -4 13 1 102 10 197
9 96 16 195 16 222 l0 48 48 -7 c26 -3 110 -24 186 -46 77 -22 164 -42 195
-45 51 -4 43 -1 -79 40 -175 58 -287 87 -310 80 -10 -3 -22 -1 -26 6 -14 23
-3 190 15 243 11 28 32 91 47 140 41 125 53 136 153 136 43 0 132 -9 198 -20z
m-2700 -137 c14 -29 23 -58 20 -65 -4 -8 -6 -7 -6 5 -1 9 -5 17 -9 17 -9 0
-20 20 -49 90 -14 32 -14 33 2 20 10 -8 28 -38 42 -67z m20 45 c-3 -7 -5 -2
-5 12 0 14 2 19 5 13 2 -7 2 -19 0 -25z m368 -98 c2 -79 11 -164 25 -230 21
-105 95 -336 150 -471 l29 -71 -38 5 c-21 2 -52 11 -67 18 -27 13 -29 19 -32
77 -3 53 -7 65 -27 78 -30 19 -62 11 -77 -21 l-10 -23 -28 31 c-29 34 -46 80
-85 223 -19 75 -21 90 -9 97 24 13 41 87 81 349 3 21 11 42 17 47 12 10 46 19
60 17 5 -1 10 -58 11 -126z m-436 23 c11 -32 30 -75 41 -95 23 -42 41 -88 36
-88 -2 0 -30 34 -62 75 -31 42 -69 85 -83 95 -26 20 -26 20 -6 35 11 8 25 19
30 24 18 18 23 12 44 -46z m-129 25 c0 -32 -14 -57 -37 -67 -24 -11 -25 -11
-20 25 5 36 20 54 45 54 6 0 12 -6 12 -12z m80 -113 c13 -14 21 -25 18 -25 -2
0 -15 11 -28 25 -13 14 -21 25 -18 25 2 0 15 -11 28 -25z m337 -12 c-3 -10 -5
-4 -5 12 0 17 2 24 5 18 2 -7 2 -21 0 -30z m1727 -85 c3 -13 8 -40 11 -60 8
-50 21 -48 29 3 13 82 48 106 41 29 -4 -41 0 -46 24 -31 9 6 19 4 28 -5 12
-11 11 -16 -7 -34 -32 -32 -26 -50 11 -30 30 16 24 -11 -10 -51 -17 -19 -51
-71 -76 -117 -42 -76 -185 -252 -204 -252 -5 0 -4 23 0 51 6 39 17 61 46 92
22 23 58 77 82 120 48 87 48 82 -18 156 -35 38 -42 67 -13 56 34 -13 37 -10
34 43 -3 52 13 74 22 30z m-1847 -55 c-3 -10 -5 -4 -5 12 0 17 2 24 5 18 2 -7
2 -21 0 -30z m-62 -61 c-8 -9 -35 20 -28 31 4 6 11 3 19 -8 8 -10 12 -21 9
-23z m1874 -89 c9 -5 -37 -78 -49 -78 -7 0 -15 -7 -17 -15 -4 -13 -3 -13 7 0
10 13 11 13 7 0 -2 -8 -10 -16 -18 -18 -12 -2 -13 11 -5 83 l10 85 30 -27 c17
-16 33 -29 35 -30z m6596 -10 c57 -18 81 -36 102 -77 9 -17 22 -36 30 -44 26
-27 5 -23 -23 4 -25 23 -81 54 -99 54 -3 0 -5 -7 -5 -15 0 -8 -6 -15 -12 -15
-9 0 -8 -4 2 -11 12 -9 13 -12 1 -16 -11 -5 -11 -7 0 -15 10 -6 6 -7 -11 -3
-66 17 -102 56 -115 129 l-8 38 44 -7 c24 -4 67 -14 94 -22z m-4530 -34 c46
-19 61 -29 63 -47 4 -28 -25 -75 -40 -66 -7 4 -8 3 -4 -4 4 -6 -4 -18 -16 -26
-29 -18 -72 -31 -65 -20 3 5 -16 8 -41 6 -42 -2 -44 -1 -22 9 23 10 24 12 7
22 -10 7 -28 20 -40 30 -18 15 -19 20 -7 27 8 5 21 5 29 1 21 -10 74 -7 78 5
5 16 -99 54 -148 54 -98 0 -172 -87 -190 -227 -13 -105 -11 -239 4 -251 18
-15 32 -2 34 31 1 28 26 56 76 83 39 21 47 10 14 -19 -15 -12 -27 -28 -27 -34
0 -7 -8 -16 -17 -22 -27 -15 -7 -25 41 -22 24 1 47 -2 51 -8 4 -7 -4 -11 -20
-11 -14 0 -28 -7 -32 -15 -3 -9 -23 -25 -44 -36 -22 -11 -39 -24 -39 -29 0 -6
-21 -8 -54 -4 -39 5 -59 2 -77 -9 -13 -9 -42 -19 -63 -23 l-39 -7 19 26 c10
14 22 23 27 20 4 -2 7 10 7 26 0 25 -4 31 -20 31 -26 0 -92 33 -110 56 -13 15
-12 16 20 9 51 -11 74 -21 89 -38 26 -32 36 -9 33 76 -2 65 0 78 9 63 6 -10
12 -35 13 -56 0 -21 4 -36 7 -34 3 2 12 -15 19 -37 20 -60 30 -30 30 94 0 91
4 121 26 185 41 118 84 175 158 208 47 22 186 13 261 -17z m-1780 -36 c-2 -16
-9 -107 -15 -203 l-12 -175 -33 -31 c-25 -23 -31 -34 -23 -42 12 -12 -5 -42
-24 -42 -5 0 -19 -9 -31 -21 l-22 -21 30 13 c17 7 38 21 48 31 10 10 22 16 27
13 4 -3 11 1 13 7 9 21 6 -171 -3 -257 -4 -44 -13 -129 -20 -190 -14 -130 -51
-286 -83 -347 -25 -49 -61 -61 -103 -33 -42 27 -102 132 -134 233 -50 154 -96
423 -87 502 8 66 15 76 37 50 9 -11 22 -20 29 -20 6 0 11 -4 11 -10 0 -5 14
-16 30 -25 17 -9 30 -22 30 -30 0 -8 4 -15 9 -15 5 0 12 -10 17 -22 6 -18 8
-13 11 26 4 51 -2 70 -16 47 -10 -16 -31 -6 -31 15 0 22 -41 59 -50 44 -5 -9
-9 -9 -14 -1 -4 6 -2 11 3 11 19 0 12 18 -10 25 -20 7 -21 12 -16 63 6 54 8
58 96 146 50 50 97 100 106 111 12 16 14 17 15 4 0 -12 9 -8 33 15 18 17 47
38 63 46 32 16 108 80 110 92 3 15 4 18 8 18 3 0 3 -12 1 -27z m1033 -9 c27
-17 78 -92 68 -101 -3 -3 -6 -1 -6 6 0 7 -4 10 -9 7 -5 -3 -21 1 -37 9 -41 20
-114 31 -114 16 0 -6 12 -16 28 -23 l27 -11 -28 -8 c-16 -4 -58 -9 -94 -11
-64 -3 -65 -2 -100 35 -19 21 -33 43 -30 50 5 16 204 57 242 50 17 -3 40 -11
53 -19z m-1158 -38 c0 -2 -8 -10 -17 -17 -16 -13 -17 -12 -4 4 13 16 21 21 21
13z m7163 -36 c36 0 37 -1 26 -22 -6 -13 -23 -35 -37 -50 -22 -24 -34 -28 -79
-28 -49 0 -67 10 -43 25 6 3 10 11 10 16 0 14 -53 2 -102 -21 -51 -24 -48 -9
8 47 l46 46 67 -7 c36 -3 83 -6 104 -6z m-4679 -40 c14 -5 26 -16 26 -23 0
-26 51 -136 125 -272 83 -151 159 -271 340 -533 101 -145 106 -169 49 -231
-65 -73 -197 -131 -296 -131 -72 0 -124 25 -153 74 -27 48 -218 493 -326 762
-16 40 -51 108 -79 153 -32 53 -45 83 -37 85 96 29 129 42 169 68 27 16 53 26
59 22 8 -4 9 -3 5 4 -4 7 4 14 21 18 15 3 33 7 38 9 19 6 34 5 59 -5z m4084
-35 c12 -25 22 -48 22 -50 0 -3 -18 -5 -40 -5 l-40 0 0 50 c0 67 27 69 58 5z
m178 -3 c-3 -5 -8 -44 -11 -88 -3 -43 -8 -92 -10 -109 -2 -16 2 -38 9 -48 11
-15 18 -16 42 -6 16 6 58 13 94 15 l65 4 -60 -23 c-46 -17 -59 -27 -57 -41 2
-11 -1 -15 -7 -11 -7 4 -8 0 -4 -11 5 -15 2 -16 -28 -10 -19 3 -40 14 -46 23
-12 16 -13 16 -13 0 0 -39 -127 -10 -151 35 -6 12 -26 35 -43 50 -36 30 -29
49 8 24 33 -21 72 -20 85 2 9 15 10 15 11 -5 0 -12 4 -24 10 -28 14 -9 36 33
53 100 17 65 44 135 53 135 3 0 3 -4 0 -8z m-5484 -38 c21 -15 36 -30 33 -33
-2 -4 -36 -20 -74 -35 -74 -29 -177 -91 -225 -135 l-28 -26 7 32 c3 18 15 49
24 70 10 21 24 55 32 75 11 32 18 38 53 44 22 3 56 12 76 20 50 18 59 17 102
-12z m-2942 -42 c0 -44 4 -63 18 -73 28 -24 86 -47 134 -54 35 -5 48 -13 61
-35 29 -49 23 -59 -29 -49 -53 10 -129 33 -199 61 -27 11 -61 21 -75 23 -55 5
-56 5 -37 16 23 13 13 29 -21 30 -24 2 -24 2 -4 6 29 6 28 17 -5 42 l-28 21
38 -6 c41 -7 51 8 17 26 -20 11 -28 40 -11 40 5 0 17 -8 27 -17 22 -23 63 -43
67 -35 3 4 7 19 11 35 3 15 13 27 21 27 12 0 15 -13 15 -58z m3043 -38 c-5
-12 -8 -13 -14 -3 -4 7 -5 17 -2 21 2 5 1 15 -4 21 -4 7 0 5 9 -6 9 -10 14
-25 11 -33z m5195 10 c17 -3 20 -7 11 -17 -10 -10 -22 -9 -60 3 -27 8 -49 18
-49 22 0 6 46 3 98 -8z m246 -37 c-23 -42 -44 -67 -44 -53 0 9 63 106 67 103
2 -2 -8 -25 -23 -50z m-379 36 c12 -4 -8 -13 -56 -27 -41 -12 -95 -36 -122
-54 -65 -45 -146 -128 -153 -157 -3 -14 -10 -25 -14 -25 -13 0 -39 -111 -46
-195 -11 -139 41 -349 106 -432 32 -41 23 -52 -11 -13 -37 43 -93 141 -113
198 -43 122 -40 284 9 403 47 117 189 248 306 284 58 18 73 23 76 24 1 1 9 -2
18 -6z m-5110 -32 c3 -6 -3 -10 -12 -10 -10 1 -29 -2 -43 -5 -21 -5 -20 -4 5
8 36 18 42 19 50 7z m-99 -36 c-11 -8 -27 -15 -35 -14 -9 0 -2 7 14 14 39 18
45 18 21 0z m-69 -31 c-3 -3 -12 -4 -19 -1 -8 3 -5 6 6 6 11 1 17 -2 13 -5z
m-82 -56 c-49 -43 -135 -154 -135 -173 1 -5 11 2 23 16 32 39 61 51 92 39 67
-25 54 -166 -19 -205 -30 -16 -35 -16 -63 -2 -34 18 -49 64 -37 113 5 18 3 25
-4 20 -16 -9 -32 -98 -32 -174 0 -65 24 -174 56 -256 22 -56 91 -173 133 -226
l36 -44 -33 23 c-67 47 -159 184 -198 293 -7 21 -18 74 -24 118 -26 189 36
345 182 461 66 52 83 50 23 -3z m5197 -15 c13 -11 18 -30 18 -64 0 -40 -6 -55
-30 -83 -41 -46 -84 -56 -116 -25 -34 32 -32 76 7 125 52 68 85 80 121 47z
m-7926 -61 c10 -5 31 -24 47 -41 15 -17 31 -31 37 -31 11 0 75 -94 89 -133 33
-87 43 -172 38 -316 -5 -155 -13 -203 -29 -179 -5 8 -6 3 -2 -14 3 -16 2 -28
-4 -28 -5 0 -12 -12 -15 -27 -9 -41 -40 -57 -76 -39 -104 54 -210 223 -242
386 -18 92 -7 281 21 355 34 93 62 107 136 67z m8017 -73 c7 -27 0 -46 -21
-54 -24 -9 -46 19 -38 49 8 33 51 37 59 5z m-8285 -111 c-4 -32 -11 -53 -24
-63 -10 -7 -21 -11 -23 -9 -3 2 4 11 15 18 10 8 15 18 11 22 -4 5 -12 3 -16
-5 -6 -10 -10 -9 -15 5 -5 12 1 24 20 39 19 15 25 27 21 39 -4 11 -3 15 4 10
7 -4 9 -26 7 -56z m3107 -13 c0 -25 -4 -30 -25 -30 -16 0 -26 6 -28 18 -6 30
6 49 30 45 18 -2 23 -9 23 -33z m-3091 -81 c3 -8 2 -12 -4 -9 -6 4 -10 -6 -10
-21 0 -27 1 -27 16 -8 15 18 15 17 10 -18 -5 -38 8 -54 17 -20 3 9 5 -5 6 -31
1 -52 -9 -55 -29 -7 -7 16 -16 28 -20 25 -12 -7 -17 84 -6 95 13 13 13 13 20
-6z m-15 -124 c13 -27 30 -50 37 -50 8 0 14 -11 14 -27 1 -16 7 -41 15 -58 13
-26 14 -27 10 -5 l-5 25 12 -23 c8 -16 8 -26 0 -34 -8 -8 -16 -1 -31 23 -12
19 -21 27 -21 19 -1 -12 -4 -11 -15 3 -7 11 -11 26 -8 35 4 9 2 13 -4 9 -13
-8 -32 34 -40 89 -8 58 7 56 36 -6z m105 -194 c-3 -8 7 -26 21 -41 15 -14 25
-29 22 -32 -7 -7 -56 48 -57 63 0 10 9 24 16 24 2 0 1 -6 -2 -14z"/>
<path d="M8457 3933 c-4 -3 -7 -11 -7 -17 0 -6 5 -5 12 2 6 6 9 14 7 17 -3 3
-9 2 -12 -2z"/>
<path d="M8930 3740 c0 -5 5 -10 10 -10 6 0 10 5 10 10 0 6 -4 10 -10 10 -5 0
-10 -4 -10 -10z"/>
<path d="M8782 2830 c0 -19 2 -27 5 -17 2 9 2 25 0 35 -3 9 -5 1 -5 -18z"/>
<path d="M7756 2471 c-5 -7 -5 -23 -2 -37 4 -16 1 -30 -9 -40 -15 -16 -20 -71
-9 -111 3 -12 21 -29 40 -38 95 -45 188 54 147 158 -17 41 -38 57 -77 57 -14
0 -26 5 -26 10 0 6 -7 10 -15 10 -8 0 -15 -8 -15 -17 0 -15 -1 -15 -13 2 -10
13 -16 15 -21 6z m104 -70 c0 -24 -23 -43 -43 -35 -23 9 -28 32 -9 43 28 17
52 13 52 -8z"/>
<path d="M8493 2299 c-63 -18 -100 -108 -69 -167 19 -38 47 -54 91 -54 44 0
69 15 94 56 38 61 18 136 -44 162 -19 8 -36 14 -37 13 -2 0 -17 -5 -35 -10z
m61 -44 c3 -8 3 -22 -1 -31 -8 -22 -57 -14 -61 10 -7 32 50 51 62 21z"/>
<path d="M7981 2146 c-15 -59 -14 -90 3 -131 29 -68 126 -96 193 -56 39 24 85
100 87 144 1 32 1 32 -49 33 -27 1 -85 13 -128 28 -42 14 -81 26 -86 26 -5 0
-14 -20 -20 -44z m114 -76 c9 15 85 -30 85 -51 0 -60 -128 -60 -160 0 -19 37
13 68 52 49 10 -5 19 -4 23 2z"/>
<path d="M8145 2030 c3 -5 11 -10 16 -10 6 0 7 5 4 10 -3 6 -11 10 -16 10 -6
0 -7 -4 -4 -10z"/>
<path d="M8100 2020 c0 -5 5 -10 11 -10 5 0 7 5 4 10 -3 6 -8 10 -11 10 -2 0
-4 -4 -4 -10z"/>
<path d="M2968 4413 c7 -3 16 -2 19 1 4 3 -2 6 -13 5 -11 0 -14 -3 -6 -6z"/>
<path d="M4100 4341 c0 -6 4 -13 10 -16 6 -3 7 1 4 9 -7 18 -14 21 -14 7z"/>
<path d="M3950 4060 c-8 -5 -10 -10 -5 -10 6 0 17 5 25 10 8 5 11 10 5 10 -5
0 -17 -5 -25 -10z"/>
<path d="M3905 4040 c3 -5 8 -10 11 -10 2 0 4 5 4 10 0 6 -5 10 -11 10 -5 0
-7 -4 -4 -10z"/>
<path d="M3310 3712 c6 -13 14 -21 18 -18 3 4 -2 14 -12 24 -18 16 -18 16 -6
-6z"/>
<path d="M4140 4070 c-9 -6 -10 -10 -3 -10 6 0 15 5 18 10 8 12 4 12 -15 0z"/>
<path d="M3838 3443 c7 -3 16 -2 19 1 4 3 -2 6 -13 5 -11 0 -14 -3 -6 -6z"/>
<path d="M6062 4014 c-24 -17 -29 -34 -9 -34 12 0 42 39 35 46 -2 2 -14 -3
-26 -12z"/>
<path d="M6497 3823 c-4 -3 -7 -11 -7 -17 0 -6 5 -5 12 2 6 6 9 14 7 17 -3 3
-9 2 -12 -2z"/>
<path d="M6198 3753 c6 -2 18 -2 25 0 6 3 1 5 -13 5 -14 0 -19 -2 -12 -5z"/>
<path d="M5338 3718 c12 -6 22 -15 22 -20 0 -4 6 -8 13 -8 6 1 1 10 -12 20
-13 11 -28 20 -35 19 -6 0 -1 -5 12 -11z"/>
<path d="M6731 3664 c0 -11 3 -14 6 -6 3 7 2 16 -1 19 -3 4 -6 -2 -5 -13z"/>
<path d="M6930 3651 c0 -13 47 -41 67 -40 12 0 8 4 -9 11 -16 5 -28 13 -28 18
0 4 -7 10 -15 14 -8 3 -15 2 -15 -3z"/>
<path d="M6781 3394 c0 -11 3 -14 6 -6 3 7 2 16 -1 19 -3 4 -6 -2 -5 -13z"/>
<path d="M7320 3407 c0 -8 -4 -17 -10 -19 -5 -1 6 -16 26 -31 19 -16 37 -27
39 -25 2 2 -9 23 -26 47 -16 24 -29 37 -29 28z"/>
<path d="M3041 3554 c18 -22 57 -119 75 -189 16 -58 19 -119 10 -160 -3 -11
-8 -31 -11 -45 -6 -24 -6 -24 9 -6 39 48 33 159 -14 303 -18 54 -34 99 -35
101 -1 1 -12 5 -25 7 -19 4 -20 2 -9 -11z"/>
<path d="M3665 3439 c-4 -6 -5 -12 -2 -15 2 -3 7 2 10 11 7 17 1 20 -8 4z"/>
<path d="M3576 3313 c-52 -77 -72 -116 -87 -173 -26 -101 -23 -110 8 -21 23
68 48 113 126 230 16 24 27 47 25 53 -2 6 -34 -35 -72 -89z"/>
<path d="M3677 3403 c-4 -3 -7 -11 -7 -17 0 -6 5 -5 12 2 6 6 9 14 7 17 -3 3
-9 2 -12 -2z"/>
<path d="M5930 3216 c0 -2 7 -7 16 -10 8 -3 12 -2 9 4 -6 10 -25 14 -25 6z"/>
<path d="M2025 3159 c140 -36 129 -34 116 -11 -15 28 -37 42 -27 17 5 -15 4
-16 -9 -5 -8 7 -48 14 -88 16 l-72 4 80 -21z"/>
<path d="M1811 2939 c-135 -18 -112 -28 49 -22 86 3 182 1 215 -5 71 -12 105
-1 54 17 -46 17 -227 22 -318 10z"/>
<path d="M1325 2853 c-167 -37 -318 -97 -360 -143 -33 -36 -8 -33 67 8 65 35
193 82 343 125 l50 15 -40 0 c-22 0 -49 -2 -60 -5z"/>
<path d="M1957 2717 c-36 -29 -48 -74 -35 -127 24 -95 142 -110 187 -23 16 32
13 69 -9 113 -33 64 -91 79 -143 37z m51 -51 c5 -23 -23 -47 -44 -39 -15 5
-19 44 -7 57 13 13 48 1 51 -18z"/>
<path d="M1230 2567 c-40 -19 -54 -47 -22 -47 10 0 13 -3 6 -8 -5 -4 -8 -28
-6 -55 6 -69 44 -107 106 -107 76 0 118 60 96 138 -12 45 -18 53 -50 75 -28
19 -93 21 -130 4z m80 -68 c0 -14 -30 -31 -45 -25 -20 7 -19 30 2 51 16 16 17
16 30 -1 7 -10 13 -21 13 -25z"/>
<path d="M2056 2501 c-39 -14 -54 -25 -69 -54 -22 -43 -16 -57 37 -84 23 -12
46 -14 100 -9 103 10 136 40 106 96 -6 11 -6 21 -1 24 5 3 7 15 4 26 -5 18
-13 20 -52 19 -25 -2 -49 -7 -53 -13 -5 -7 -8 -7 -8 2 0 15 -3 15 -64 -7z"/>
<path d="M1797 2444 c-4 -4 -7 -26 -7 -48 0 -53 -22 -84 -65 -92 -52 -9 -91
11 -112 57 -19 43 -43 52 -43 17 0 -34 35 -85 71 -104 47 -24 112 -14 150 22
32 31 53 86 47 124 -3 24 -27 38 -41 24z"/>
<path d="M2252 2420 c0 -14 2 -19 5 -12 2 6 2 18 0 25 -3 6 -5 1 -5 -13z"/>
<path d="M1200 2326 c-59 -26 -92 -86 -67 -120 7 -10 41 -24 77 -31 79 -17 83
-18 75 -5 -4 6 5 10 20 10 41 0 88 28 82 50 -3 13 0 17 9 13 21 -8 17 21 -8
61 -23 36 -23 36 -93 34 -38 0 -81 -6 -95 -12z"/>
<path d="M2050 2050 c0 -13 80 -13 100 0 11 7 -2 10 -42 10 -32 0 -58 -4 -58
-10z"/>
<path d="M1355 2005 c-60 -13 -158 -47 -184 -64 -7 -5 -10 -14 -6 -21 4 -7 10
-8 14 -3 8 12 60 28 216 68 122 31 127 34 75 33 -30 0 -82 -6 -115 -13z"/>
<path d="M2020 1893 c-34 -7 -47 -21 -19 -21 13 0 52 -1 87 -2 61 -3 83 3 69
17 -9 8 -104 13 -137 6z"/>
<path d="M1298 1756 c-15 -8 -29 -12 -32 -8 -3 3 -6 -2 -6 -12 0 -15 3 -15 38
2 20 11 44 22 52 25 11 4 9 6 -5 6 -11 1 -32 -5 -47 -13z"/>
<path d="M1935 1409 c-16 -5 -114 -14 -218 -19 -103 -5 -193 -13 -201 -17 -22
-12 362 -7 423 6 61 12 66 15 56 30 -7 13 -19 13 -60 0z"/>
<path d="M5066 3059 c-31 -24 -35 -45 -6 -29 17 9 47 50 37 50 -3 0 -16 -9
-31 -21z"/>
<path d="M5355 2851 c11 -3 36 -14 55 -24 l35 -18 -28 25 c-17 16 -39 26 -55
25 -23 -1 -24 -2 -7 -8z"/>
<path d="M2325 3121 c2 -63 7 -117 11 -120 9 -9 1 208 -8 222 -5 7 -6 -39 -3
-102z"/>
<path d="M2427 2971 c-4 -17 -3 -21 5 -13 5 5 8 16 6 23 -3 8 -7 3 -11 -10z"/>
<path d="M2351 2843 c0 -26 3 -43 10 -43 8 0 8 -4 0 -14 -8 -10 -8 -22 4 -47
l14 -34 2 38 c5 70 4 77 -6 77 -5 -1 -13 14 -16 32 -6 32 -6 31 -8 -9z"/>
<path d="M4500 2875 c0 -4 7 -19 15 -35 18 -36 45 -40 44 -7 0 12 -3 16 -6 9
-6 -16 -33 3 -33 24 0 8 -4 14 -10 14 -5 0 -10 -2 -10 -5z"/>
<path d="M4521 2768 c-11 -18 -19 -20 -64 -14 -37 5 -48 3 -37 -4 8 -5 26 -10
39 -10 17 0 22 -4 17 -15 -4 -12 -2 -13 12 -7 9 5 23 7 31 4 8 -3 11 0 7 6 -4
7 -2 21 4 33 15 28 8 34 -9 7z"/>
<path d="M4818 2633 c5 -21 7 -23 10 -9 2 10 0 22 -6 28 -6 6 -7 0 -4 -19z"/>
<path d="M4674 2620 c-12 -5 -25 -14 -30 -21 -5 -9 -2 -10 12 -5 50 20 50 20
32 -1 -24 -27 -23 -40 2 -18 34 31 23 60 -16 45z"/>
<path d="M4163 2495 l-83 -55 0 -47 c0 -38 2 -44 13 -34 6 6 12 24 12 39 0 21
13 35 74 77 67 46 97 76 74 74 -4 0 -45 -25 -90 -54z"/>
<path d="M4980 2416 c0 -2 7 -7 16 -10 8 -3 12 -2 9 4 -6 10 -25 14 -25 6z"/>
<path d="M4495 2140 c-3 -5 1 -10 10 -10 9 0 13 5 10 10 -3 6 -8 10 -10 10 -2
0 -7 -4 -10 -10z"/>
<path d="M6818 2684 c-36 -19 -48 -43 -48 -96 1 -52 16 -83 56 -109 96 -63
208 59 147 162 -31 52 -102 72 -155 43z m52 -48 c0 -50 -51 -69 -65 -25 -9 26
11 49 41 49 19 0 24 -5 24 -24z"/>
<path d="M5980 2541 c-32 -9 -70 -65 -70 -103 0 -39 35 -105 60 -113 11 -3 20
-10 20 -14 0 -5 19 -5 42 -1 96 18 132 124 66 195 -35 37 -75 49 -118 36z m30
-51 c14 -26 -3 -60 -31 -60 -24 0 -33 21 -25 55 8 31 41 34 56 5z"/>
<path d="M6575 2410 c-45 -21 -194 -45 -228 -36 -12 3 -28 1 -36 -3 -30 -19 9
-140 62 -200 66 -73 198 -64 256 18 52 72 50 244 -3 240 -6 0 -29 -9 -51 -19z
m24 -144 c26 -17 0 -72 -46 -95 -12 -6 -37 -11 -55 -11 -37 0 -98 33 -98 52 1
24 28 51 45 44 10 -4 14 -2 9 6 -5 8 8 9 47 5 30 -3 46 -3 37 0 -10 2 -18 8
-18 13 0 8 59 -2 79 -14z"/>
<path d="M6445 2190 c3 -5 8 -10 11 -10 2 0 4 5 4 10 0 6 -5 10 -11 10 -5 0
-7 -4 -4 -10z"/>
<path d="M5200 2593 c1 -13 84 -49 103 -45 23 5 16 27 -9 28 -11 1 -29 6 -41
13 -25 13 -53 15 -53 4z"/>
<path d="M5390 2558 c0 -19 2 -20 10 -8 13 19 13 30 0 30 -5 0 -10 -10 -10
-22z"/>
<path d="M2635 2378 l-16 -33 21 24 c11 13 20 27 20 32 0 18 -10 8 -25 -23z"/>
<path d="M3276 2790 c8 -6 332 -118 374 -129 11 -2 10 2 -4 18 -11 11 -25 21
-31 21 -7 0 -38 11 -70 25 -57 26 -286 81 -269 65z"/>
<path d="M2366 2397 c3 -10 9 -15 12 -12 3 3 0 11 -7 18 -10 9 -11 8 -5 -6z"/>
<path d="M4080 1790 c-13 -8 -13 -10 2 -10 9 0 20 5 23 10 8 13 -5 13 -25 0z"/>
<path d="M2490 1800 c-9 -6 -10 -10 -3 -10 6 0 15 5 18 10 8 12 4 12 -15 0z"/>
<path d="M2421 1744 c-12 -14 -21 -28 -18 -30 2 -2 16 9 30 26 15 16 23 30 19
30 -5 0 -19 -12 -31 -26z"/>
<path d="M2470 1739 c0 -5 5 -7 10 -4 6 3 10 8 10 11 0 2 -4 4 -10 4 -5 0 -10
-5 -10 -11z"/>
<path d="M821 1764 c0 -11 3 -14 6 -6 3 7 2 16 -1 19 -3 4 -6 -2 -5 -13z"/>
<path d="M915 1720 c10 -11 20 -20 23 -20 3 0 -3 9 -13 20 -10 11 -20 20 -23
20 -3 0 3 -9 13 -20z"/>
<path d="M831 1714 c0 -11 3 -14 6 -6 3 7 2 16 -1 19 -3 4 -6 -2 -5 -13z"/>
<path d="M834 1681 c-13 -13 0 -21 24 -15 40 10 48 21 12 20 -17 -1 -33 -3
-36 -5z"/>
<path d="M940 1685 c0 -5 68 -105 78 -115 12 -11 -11 37 -36 76 -24 38 -42 55
-42 39z"/>
<path d="M851 1640 c0 -8 4 -22 9 -30 12 -18 12 -2 0 25 -6 13 -9 15 -9 5z"/>
<path d="M875 1552 c3 -23 12 -62 21 -85 8 -23 26 -82 40 -132 13 -49 33 -112
44 -140 10 -27 21 -59 25 -69 3 -10 8 -17 10 -14 6 5 5 8 -55 193 -24 72 -53
166 -66 210 -17 57 -22 68 -19 37z"/>
<path d="M1030 1538 c0 -9 5 -20 10 -23 13 -8 13 5 0 25 -8 13 -10 13 -10 -2z"/>
<path d="M1051 1490 c1 -8 5 -26 9 -40 l8 -25 1 25 c0 14 -4 32 -9 40 -9 13
-10 13 -9 0z"/>
<path d="M975 1466 c31 -26 51 -34 40 -16 -3 6 -21 17 -38 26 l-32 16 30 -26z"/>
<path d="M833 1425 c-3 -9 -3 -18 -1 -21 3 -3 8 4 11 16 6 23 -1 27 -10 5z"/>
<path d="M1064 1407 c-8 -8 -8 -23 -1 -47 5 -19 13 -57 18 -85 7 -42 7 -40 2
15 -3 36 -6 80 -5 98 0 17 0 32 -1 32 -1 -1 -7 -6 -13 -13z"/>
<path d="M817 1371 c-4 -17 -3 -21 5 -13 5 5 8 16 6 23 -3 8 -7 3 -11 -10z"/>
<path d="M822 1290 c0 -14 2 -19 5 -12 2 6 2 18 0 25 -3 6 -5 1 -5 -13z"/>
<path d="M830 1255 c0 -5 5 -17 10 -25 5 -8 10 -10 10 -5 0 6 -5 17 -10 25 -5
8 -10 11 -10 5z"/>
<path d="M916 1185 c-3 -9 -5 -33 -5 -53 2 -33 2 -32 9 13 8 53 6 66 -4 40z"/>
<path d="M1030 1039 c0 -11 4 -18 10 -14 5 3 7 12 3 20 -7 21 -13 19 -13 -6z"/>
<path d="M621 1354 c0 -11 3 -14 6 -6 3 7 2 16 -1 19 -3 4 -6 -2 -5 -13z"/>
</g>
</svg>
